<svg xmlns="http://www.w3.org/2000/svg" xmlns:xlink="http://www.w3.org/1999/xlink" version="1.1" x="0px" y="0px" viewBox="0 0 100 125" enable-background="new 0 0 100 100" xml:space="preserve"><path fill="#DBDADA" d="M89.777,48.451l1.267-0.957c0,0-3.817-1.918-6.47-1.74c-1.257,0.084-2.37,0.385-3.364,0.844  c6.25-4.389,10.231-3.018,11.55-4.783c1.012-1.357-3.632-6.779-7.121-10.726c-1.367-1.546-3.268-3.169-5.072-4.571  c0.014-0.481-0.023-2.968-2.217-4.316l-1.229,1.791c-1.16-0.806-1.934-1.3-1.934-1.3s-7.137,2.509-6.106,3.453  c0.948,0.869,8.679,3.264,11.084,6.022l-1.48,1.922l0.98,1.029c0,0,0.567-0.505,0.738,0.281c0.232,1.063-1.749,0.403-1.749,0.403  l-1.715-1.881v-3.299H73.93l-0.834-0.914c0,0-4.189,0.457-4.662,1.788c-0.286,0.643,0.365,2.86,0.365,2.86l-0.728,0.025  c-0.065-0.262-0.25-0.616-0.712-0.923c-0.283-0.189-1.906-0.928-4.13-1.748c-0.061-0.39-0.303-0.713-0.659-0.819l-1.054-0.312  c-0.314-0.093-0.646,0.005-0.902,0.231c-3.489-1.114-7.598-2.063-10.458-1.665c-0.967,0.23-5.183,0.704-7.597,6.137l-10.14,0.358  c-2.146-0.419-4.425-1.172-6.544-2.473c-0.574-0.352-0.893-0.212-1.075,0.018c-0.583-0.668-1.071-1.343-1.409-2.005  c0.173,0.02,0.3,0.021,0.37,0.001c0.669-0.418,1.341-3.624,0.569-3.708c-0.771-0.086-14.027-1.573-14.586-1.63  c-0.33-0.034-0.823,0.226-0.792,0.596l-4.056-0.275l1.623,2.647c-2.326,0.406-2.952,1.214-2.952,1.214H2.108V31.4l0.911,1.594  l6.983,3.126l-0.3,0.558l-6.307,0.601v0.59l1.201,0.868v1.287h0.772l0.944-1.287h1.458c0,0-2.741,2.477-2.87,2.477  c-0.187,0-1.356,0-1.356,0L1.25,46.63l1.501-0.386l0.772-1.673h0.729l8.624-7.292l7.77,1.56c0.759,0.641,2.044,1.317,4.172,1.94  c4.14,1.211,4.14,1.211,4.14,1.211l-2.269,1.769l-4.517-0.906l1.815,3.246l6.564,3.904l-2.122,1.517  c-2.832-3.309-7.039-5.406-11.736-5.406c-8.53,0-15.444,6.914-15.444,15.445C1.25,70.086,8.165,77,16.694,77  c7.856,0,14.342-5.867,15.317-13.459c0.976-0.32,2.038-0.668,3.199-1.045l1.077,2.881l-1.403,0.549l-2.599,3.604h37.137  c0,0,0-0.027,0.002-0.074l0.017-0.623c0.058-1.969,0.244-7.549,0.555-9.201c0.221-1.174,0.616-2.146,1.131-3.01  c-0.681,1.684-1.061,3.523-1.061,5.453c0,8.043,6.521,14.562,14.562,14.562c8.044,0,14.563-6.52,14.563-14.562  C99.191,55.846,95.278,50.532,89.777,48.451z M84.887,36.898c0.747,0.095,2.139,0.595,3.812,0.639  c2.59,0.066,3.635,2.862,3.381,3.673c-0.265,0.846-1.903,0.697-3.181,0.516C86.644,41.408,83.956,36.781,84.887,36.898z   M18.645,51.838c0.04-0.104,0.085-0.195,0.135-0.277c2.123,0.406,4.003,1.496,5.399,3.035l-0.551,0.393l-4.176,0.086v-0.129h-1.61  C17.991,53.887,18.259,52.852,18.645,51.838z M19.892,56.543c-0.116-0.07-0.174,0.057-0.252,0.102  c-0.064,0.039-0.127,0.053-0.187,0.053v-0.764l2.94-0.061l-1.727,1.232c-0.007-0.01-0.013-0.018-0.022-0.027  c-0.06-0.059-0.131-0.074-0.208-0.041c-0.048,0.02-0.091,0.051-0.141,0.068c-0.214,0.068-0.374-0.049-0.349-0.262  C19.958,56.736,20.014,56.617,19.892,56.543z M16.794,60.781c0.306,0.002,0.577,0.295,0.572,0.617  c-0.004,0.332-0.297,0.594-0.652,0.584c-0.273-0.008-0.531-0.303-0.528-0.609C16.189,61.027,16.444,60.777,16.794,60.781z   M10.177,67.713c-0.121,0.078-0.239,0.133-0.353,0.166c-0.389,0.115-0.735-0.031-1.03-0.426c-0.68-0.91-1.206-1.875-1.571-2.902  l0.722-0.322L7.726,63.74l-0.669,0.301c-0.23-0.773-0.372-1.58-0.418-2.42c-0.017-0.322-0.017-0.639,0.009-0.955  C6.678,60.281,6.901,60,7.239,59.893c0.069-0.021,0.141-0.039,0.218-0.047c0.326-0.027,0.652-0.055,0.868-0.045  c1.047,0.008,2.04,0.119,3.003,0.314c-0.044,0.246-0.08,0.502-0.097,0.773c-0.127,1.932,0.339,3.484,1.383,4.611  c0.033,0.033,0.068,0.064,0.101,0.1C11.958,66.391,11.119,67.102,10.177,67.713z M11.812,58.605  c-1.113-0.508-2.156-1.152-3.136-1.92c-0.116-0.092-0.209-0.188-0.281-0.289c1.406-2.512,3.888-4.338,6.822-4.857  c0.04,0.061,0.076,0.127,0.106,0.202c0.41,1.035,0.682,2.106,0.846,3.204h-0.467v0.553C14.372,55.92,12.691,56.799,11.812,58.605z   M16.935,70.947c-1.461,0-2.845-0.322-4.09-0.896c-0.003-0.08,0-0.162,0.018-0.248c0.15-0.736,0.414-1.438,0.702-2.129  c0.154-0.369,0.323-0.73,0.503-1.084c0.22,0.115,0.44,0.213,0.662,0.299c0.021,0.008,0.043,0.016,0.064,0.023  c0.272,0.102,0.542,0.184,0.802,0.248c0.039,0.012,0.078,0.02,0.117,0.029c0.76,0.176,1.436,0.217,1.847,0.221  c0.104,0.002,0.205,0.002,0.305,0.002c0.889,0,1.63-0.045,2.431-0.174c0.331,0.715,0.6,1.455,0.817,2.217  c0.048,0.17,0.087,0.34,0.083,0.518C19.908,70.598,18.462,70.947,16.935,70.947z M24.123,67.797  c-0.074-0.023-0.147-0.053-0.219-0.096c-0.482-0.283-0.925-0.623-1.355-0.979c0.823-0.232,1.791-0.537,3.003-0.932  C25.16,66.52,24.68,67.195,24.123,67.797z M26.043,64.727c-1.887,0.623-3.206,1.041-4.263,1.32c-0.161-0.152-0.32-0.305-0.474-0.463  c0.043-0.002,0.083-0.016,0.118-0.057c0.072-0.088-0.015-0.16-0.051-0.236c-0.012-0.025-0.027-0.051-0.038-0.078  c-0.086-0.219,0.048-0.389,0.282-0.354c0.069,0.01,0.136,0.031,0.205,0.039c0.121,0.014,0.164-0.047,0.108-0.156  c-0.044-0.088-0.108-0.166-0.147-0.256c-0.066-0.154,0.029-0.311,0.196-0.33c0.052-0.006,0.104-0.002,0.156,0.002  c0.164,0.008,0.241-0.107,0.166-0.254c-0.021-0.041-0.054-0.076-0.082-0.113c-0.07-0.092-0.116-0.189-0.063-0.305  c0.051-0.111,0.151-0.133,0.261-0.137c0.087-0.004,0.187-0.006,0.221-0.104c0.037-0.105-0.053-0.158-0.122-0.207  c-0.115-0.082-0.117-0.195-0.1-0.312c0.017-0.109,0.096-0.17,0.197-0.197c0.084-0.023,0.179-0.033,0.198-0.139  c0.021-0.115-0.082-0.141-0.151-0.186c-0.109-0.072-0.167-0.148-0.177-0.225c1.359-0.223,2.814-0.455,4.229-0.68  C26.696,62.51,26.459,63.662,26.043,64.727z M30.793,42.912c0.086-0.022,1.668,0.451,1.668,0.451l-5.916,2.66L30.793,42.912z   M32.102,62.609c0.023-0.35,0.036-0.701,0.036-1.053c0-0.34-0.012-0.674-0.033-1.006c1.371-0.215,2.249-0.348,2.249-0.348  l0.556,1.488C33.901,62.018,32.968,62.324,32.102,62.609z M34.998,57.605l-2.972,0.525c-0.183-0.844-0.438-1.658-0.752-2.441  l5.384-0.113L34.998,57.605z M31.978,54.815l2.333-1.114c0.012,0.047,0.729,0.57,1.38,1.038L31.978,54.815z M37.549,51.385  l-10.253-4.247l6.194-2.896c0,0,3.888,4.226,4.059,4.956C37.722,49.927,37.549,51.385,37.549,51.385z M41.561,47.138l-1.566-1.352  l-1.63,1.352l-1.062-1.641l1.062-1.062l3.196,1.073V47.138z M51.696,57.199c-2.038,0.584-4.164-0.596-4.748-2.635  s0.596-4.165,2.634-4.748c0.029-0.008,0.057-0.014,0.086-0.022c0.003,0.008,0.007,0.015,0.01,0.022  c-1.801,0.725-2.802,2.705-2.256,4.613c0.561,1.957,2.546,3.123,4.509,2.691C51.854,57.15,51.776,57.176,51.696,57.199z   M56.766,59.775c-1.032,0.627-2.378,0.295-3.003-0.738s-0.295-2.377,0.739-3.002c0.041-0.025,0.081-0.047,0.123-0.068  c-0.94,0.652-1.222,1.932-0.621,2.924c0.601,0.994,1.864,1.338,2.88,0.809C56.845,59.727,56.807,59.752,56.766,59.775z   M60.312,54.615l-7.608-4.29l13.386,4.29H60.312z M71.844,44.612c0,0-7.88,4.931-10.574,5.083c-1.335,0.122-2.768-0.58-3.196-0.794  c-0.43-0.213,0-0.493,0-0.493L68.86,43.27c0,0,2.532,0.182,3.263,0.591C72.632,44.146,71.844,44.612,71.844,44.612z M86.979,52.876  c0.08-0.188,0.179-0.336,0.295-0.446c2.833,0.715,5.175,2.658,6.424,5.232c-0.066,0.107-0.155,0.209-0.274,0.297  c-0.8,0.596-1.657,1.09-2.558,1.506c-0.832-1.98-2.605-3.467-4.76-3.9C86.312,54.649,86.606,53.754,86.979,52.876z M84.817,61.512  c0.307,0.002,0.576,0.295,0.572,0.617c-0.005,0.332-0.297,0.594-0.651,0.584c-0.274-0.008-0.532-0.305-0.529-0.609  C84.211,61.756,84.467,61.508,84.817,61.512z M83.472,52.233c0.069,0.081,0.127,0.179,0.168,0.29  c0.113,0.305,0.222,0.611,0.268,0.82c0.187,0.713,0.317,1.414,0.401,2.111c-0.312,0.021-0.616,0.066-0.914,0.131l-1.288-3.057  C82.55,52.399,83.005,52.3,83.472,52.233z M77.97,68.066c-0.153,0.092-0.309,0.176-0.484,0.217  c-0.029,0.008-0.058,0.012-0.086,0.016c-1.458-1.713-2.34-3.932-2.34-6.357c0-0.547,0.047-1.084,0.133-1.607  c0.095-0.039,0.2-0.062,0.316-0.07c0.487-0.029,0.973-0.01,1.456,0.035l-0.258,0.824l-0.688,0.818l0.516,2.227l1.987-0.186  c0.307,0.979,0.839,1.859,1.533,2.582C79.406,67.125,78.708,67.623,77.97,68.066z M78.508,55.967l-1.269,1.553  c-0.143-0.117-0.284-0.238-0.425-0.363c-0.132-0.119-0.229-0.242-0.29-0.369c0.869-1.406,2.085-2.574,3.526-3.389l1.276,3.027  c-0.39,0.242-0.752,0.525-1.081,0.842L78.508,55.967z M88.565,71.029c-1.142,0.465-2.388,0.723-3.696,0.723  c-0.042,0-0.084-0.002-0.126-0.002v-0.723h-0.534v0.699c-1.393-0.092-2.706-0.475-3.88-1.088c-0.008-0.115,0.004-0.232,0.036-0.354  c0.161-0.582,0.396-1.139,0.649-1.686c0.144-0.311,0.299-0.615,0.461-0.912c0.976,0.572,2.111,0.9,3.324,0.9  c1.039,0,2.021-0.242,2.896-0.67c0.264,0.605,0.487,1.234,0.661,1.896c0.062,0.305,0.19,0.639,0.218,0.998  C88.581,70.887,88.575,70.959,88.565,71.029z M91.683,68.996c-0.123-0.035-0.251-0.1-0.385-0.191  c-0.787-0.545-1.49-1.18-2.129-1.879c1.354-1.205,2.208-2.959,2.208-4.914c0-0.287-0.021-0.57-0.057-0.848  c0.948-0.096,1.903-0.098,2.867-0.002c0.186,0.018,0.339,0.062,0.467,0.127c0.016,0.217,0.025,0.434,0.025,0.652  C94.68,64.713,93.529,67.213,91.683,68.996z"/><rect transform="rotate(15)"/></svg>